Patient4_TMGait_0pt5_02_left_25_EMG.mot
version=1
nRows=27
nColumns=33
inDegrees=no
endheader
time	1LAddLong	2LGlutMax	3LGlutMed	4LIliopsoas	5LSemiMemb	6LBicFemLong	7LRecFem	8LVastMed	9LVastLat	10LGasMed	11LTibAnt	12lTibPost	13LPeroneusLong	14LSol	15LExtDigLong	16LFlexDigLong	17RAddLong	18RGlutMax	19RGlutMed	20RIliopsoas	21RSemiMemb	22RBicFemLong	23RRecFem	24RVastMed	25RVastLat	26RGasMed	27RTibAnt	28RTibPost	29RPeroneusLong	30RSol	31RExtDigLong	32RFlexDigLong
32.327	0.030518	0.63782	-0.44693	0.015564	-0.16083	0.027771	0.40802	0.012512	-0.16266	-0.1622	-0.008392	-0.00824	0.038757	-0.001984	-0.016479	-0.41962	-0.022125	0.30518	0.051117	-0.060425	0.038605	-0.32074	0.49194	-0.18662	0.0383	0.01358	0.3093	0.002594	-0.022736	-0.41672	0.000916	-0.006409
32.328	0.04364	0.76141	-0.38132	0.00412	0.019684	-0.023956	0.44128	0.01297	-0.15076	-0.17548	-0.013275	-0.009308	-0.027618	0.03891	0.063324	0.75287	-0.030365	0.29511	0.032806	-0.11353	0.03891	-0.16632	0.45685	-0.1178	0.041046	0.008698	0.34409	-0.003815	-0.046539	-0.41184	0.001831	-0.001068
32.329	0.0354	0.77576	-0.3186	-0.000458	0.15015	-0.18524	0.4361	-0.000458	-0.12756	-0.19363	0.063934	-0.014191	-0.085754	0.042877	0.37293	-0.005188	-0.029602	0.20233	-0.050507	-0.18662	0.054321	0.012512	0.44876	-0.087128	0.015259	0.005035	0.057831	-0.000153	-0.14313	-0.40878	0.000916	-0.00946
32.33	0.024719	0.79346	-0.24063	0.015259	0.10544	0.095978	0.44418	0.01236	-0.093231	-0.16449	0.094604	-0.013428	-0.090027	0.016022	0.3212	-0.000458	-0.024261	0.10086	0.009155	-0.13367	-0.00061	0.14084	0.4837	-0.13947	-0.004578	0.007172	0.38452	0.000153	-0.16312	-0.32059	0.000916	-0.001068
32.331	0.012512	0.77911	-0.12314	0.020599	0.029907	0.1416	0.40604	0.022583	-0.080872	-0.074158	0.080872	-0.007629	-0.15808	0.014954	0.073395	-0.17532	0.031128	0.090027	-0.011292	-0.084076	-0.014496	0.12665	0.50125	-0.18524	-0.009155	0.001831	0.67535	-0.005646	-0.060272	-0.27557	0.002594	-0.005951
32.332	0.010223	0.76065	-0.10803	0.014343	-0.003357	0.007172	0.45685	0.039825	-0.060272	-0.020142	0.076141	-0.00824	-0.12375	0.016174	-0.018158	0.66452	0.046692	0.034485	-0.022888	0.002747	0.019379	0.02655	0.50217	-0.20935	-0.042572	0.005188	0.39139	0.000305	0.11673	-0.12756	-0.005646	-0.001984
32.333	0.003967	0.82672	-0.08316	-0.004425	0.029297	-0.018005	0.45792	0.054016	-0.026093	0.032349	0.083771	-0.000458	-0.06012	0.13214	-0.038147	-0.15305	0.096588	-0.013123	-0.063629	0.016632	0.080414	-0.020294	0.48584	-0.23743	-0.054779	0.005798	0.08316	-0.002747	0.2179	0.071106	0.001373	-0.006714
32.334	0.005951	0.94009	-0.14679	-0.001373	0.010223	-0.007019	0.38391	0.06073	-0.068817	0.11902	0.07843	-0.003052	0.072784	0.34866	-0.014801	0.16876	0.075684	0.006866	0.015869	0.019379	0.06012	-0.15671	0.58502	-0.35278	-0.071869	0.005035	-0.3688	-0.006561	0.31158	0.20493	0.000916	-0.001526
32.335	0.002899	1.0384	-0.06424	0.020142	0.002289	-0.070038	0.3595	0.071716	-0.037079	0.19089	0.079651	-0.005951	0.087433	0.5806	0.030975	-0.74966	0.085602	-0.05188	0.112	-0.050659	0.035858	-0.26459	0.54275	-0.32928	-0.079803	0.000458	-0.5835	-0.009308	0.35049	0.39993	-0.000458	0.000763
32.336	0.040741	1.012	0.15274	0.009613	-0.06134	-0.22232	0.35828	0.050659	0.03952	0.21423	0.036926	-0.00412	0.042114	0.53467	-0.002747	0.12405	0.044098	-0.068817	0.17441	-0.036316	0.00351	-0.26398	0.55435	-0.3566	-0.057678	-0.005798	-0.10361	-0.004425	0.20325	0.46112	0.003204	-0.010681
32.337	-0.01236	1.0132	0.54565	-0.005188	-0.049286	-0.24979	0.29633	0.015717	0.16434	0.18951	0.020599	0.000458	0.016022	0.4216	-0.012054	0.36484	-0.006256	-0.12909	0.22766	-0.088654	-0.056305	-0.29068	0.53787	-0.39276	-0.04303	-0.009308	0.58334	-0.010834	0.16953	0.33554	-0.004578	-0.015106
32.338	0.022888	1.0785	0.45487	0.00824	-0.055237	-0.13275	0.22644	-0.039978	0.22354	0.23102	0.009308	0.00885	0.032043	0.16892	0.029297	0.14526	-0.083923	-0.20859	0.18112	-0.090179	-0.11841	-0.28458	0.47882	-0.43854	-0.010529	-0.020599	0.6781	-0.006409	-0.10727	0.3009	-0.000153	-0.014343
32.339	0.05249	1.1732	0.31387	0.006104	-0.011597	-0.061188	0.19882	-0.081329	0.26047	0.242	0.012512	0.01297	0.03479	-0.35461	0.069733	-0.11215	-0.13184	-0.27817	0.072479	-0.033569	-0.16419	-0.23407	0.40192	-0.37857	0.02243	-0.016022	0.78354	-0.005646	-0.22659	0.27298	-0.001221	-0.019836
32.34	0.021515	1.2492	0.30029	0.00946	-0.023499	0.016785	0.19775	-0.055542	-0.008392	0.22293	0.004883	0.020294	0.018005	-0.70587	0.11383	0.3244	-0.097961	-0.39169	0.055695	-0.12543	-0.16968	-0.18707	0.39887	-0.35233	0.036926	-0.001373	0.45654	-0.000916	0.001526	0.19699	0.008087	-0.011292
32.341	0.004425	1.3945	0.27084	-0.00061	-0.040131	0.059509	0.092163	-0.022125	-0.19073	0.17914	0.031128	0.031433	0.018463	-0.66757	0.12711	0.58166	-0.1709	-0.39642	-0.016937	-0.2063	-0.18539	-0.1471	0.40878	-0.20889	0.046997	0.014038	-1.1569	-0.005341	0.36255	-0.031891	0.002594	0.002136
32.342	0.03479	1.4001	0.19226	0.005341	-0.034637	0.089569	-0.094757	-0.010834	-0.20233	0.14755	0.023956	0.02182	0.018158	-0.44281	0.13931	-1.107	-0.15289	-0.448	-0.02655	-0.27313	-0.18356	-0.071411	0.35385	-0.21164	0.060272	0.013733	-2.3605	0	0.46539	-0.10315	0.005493	-0.006104
32.343	0.019226	1.2491	0.092163	0.028534	-0.031281	0.10727	-0.24124	0.004578	-0.17975	0.10025	0.052643	0.039063	0.043182	-0.32852	0.052338	0.2475	-0.090332	-0.53177	-0.02655	-0.19287	-0.10803	0.021667	0.26169	-0.099335	0.072327	0.00351	-0.95444	0.000458	0.37964	-0.062103	0.001068	-0.006409
32.344	0.023041	1.1321	0.015564	0.032501	-0.045624	0.12131	-0.34897	0.010681	-0.08667	0.000305	0.06897	0.059662	0.040894	-0.34897	0.22781	0.41885	-0.085297	-0.60883	0.017395	-0.004578	0.024719	0.057373	0.22293	0.037537	0.08728	0.001678	0.41809	-0.007477	0.18692	-0.075073	-0.001526	-0.004578
32.345	0.025024	1.0573	0.041199	-0.00412	-0.05722	-0.15335	-0.39154	0.004425	0.031281	0.016785	0.079803	0.028381	0.006256	-0.27069	0.20355	-0.15137	0.014801	-0.63782	0.036316	0.11215	0.10468	0.098419	0.34912	0.018463	0.039063	-0.009308	1.0565	-0.003204	-0.041046	-0.12924	0.002136	-0.0177
32.346	0.012665	1.1035	0.009308	-0.001221	-0.069275	-0.13351	-0.35446	0.003967	0.060883	0.044403	0.095062	-0.062256	-0.030365	-0.13672	0.5719	-0.080261	0.1265	-0.58746	0.056305	0.20325	0.19012	0.040131	0.38849	0.10315	0.032196	-0.010986	0.91705	-0.005951	-0.28076	-0.099335	-0.000916	0.000916
32.347	0.007935	1.0341	-0.12558	0.006866	-0.041046	-0.039825	-0.32883	-0.004272	-0.015869	-0.15259	0.10437	0.000763	-0.017548	-0.066071	-0.2272	-0.2095	0.22644	-0.6282	0.090485	0.17609	0.1918	-0.065155	0.43732	0.14191	0.018311	-0.005493	1.0478	-0.005493	-0.37018	-0.061493	0.002441	-0.006104
32.348	0.000153	0.99731	-0.18631	0.001526	0.048676	-0.025024	-0.34378	-0.007172	-0.012512	-0.28961	0.075836	0.018311	-0.033569	-0.091248	0.18875	-0.11917	0.21927	-0.65857	0.14252	0.15243	0.15076	-0.075989	0.34088	0.2565	0.042572	0.000458	0.87738	-0.006256	-0.27969	-0.1294	-0.004883	-0.001221
32.349	0.00061	0.84671	-0.15701	0.012054	0.071716	-0.033875	-0.41245	0.007019	0.016479	-0.23407	0.079346	0.019073	-0.049133	-0.091705	-0.25925	0.1236	0.13947	-0.71915	0.23239	0.070038	0.12146	0.004272	0.31921	0.2594	0.033722	0.005798	-0.22476	0.000458	-0.033264	-0.22308	-0.000916	0.006866
32.35	0.004272	0.6633	-0.26108	0.006866	0.037079	-0.14969	-0.49637	0.005798	0.036011	-0.18265	0.054626	0.014038	-0.020294	0.12955	-0.26367	-0.20309	0.13825	-0.76523	0.2034	-0.038757	0.14297	0.024719	0.36621	0.1506	0.033875	0.016022	-0.21759	-0.00351	0.005646	-0.27374	-0.001831	0.010681
32.351	0.004883	0.51971	-0.2243	0.002136	0.036621	-0.19226	-0.53802	0.00946	-0.042114	-0.080566	-0.001526	0.017548	0.01297	0.19608	-0.23071	-0.04303	0.10147	-0.71579	0.24536	-0.11078	0.15243	0.14465	0.38971	0.08194	0.024261	0.014801	-0.22568	-0.007019	0.18341	-0.24841	0	-0.004272
32.352	0.006561	0.43564	-0.23972	-0.006561	0.013275	-0.22827	-0.57129	0.009155	0.049896	0.00061	-0.038452	0.009766	0.031433	0.18204	-0.17105	-0.51209	0.12146	-0.77194	0.25742	-0.12405	0.18921	0.30716	0.41504	0.002594	-0.019836	0.021362	-0.47348	-0.006866	0.5394	-0.16892	-0.00824	-0.003357
32.353	0.01236	0.39932	-0.25528	0.010681	0.012054	-0.1445	-0.56915	0.005035	0.17029	-0.007019	-0.048676	0.018768	-0.000763	0.018921	-0.18677	0.55573	0.19623	-0.8902	0.079651	0.029602	0.15152	0.2063	0.43991	-0.054016	-0.043945	0.010376	-0.43152	-0.006409	0.39993	-0.087585	-0.005493	-0.010376
